<svg width="107" height="33" viewBox="0 0 107 33" fill="none" xmlns="http://www.w3.org/2000/svg">
<path d="M13.816 24.72C13.72 24.72 13.672 24.624 13.672 24.432C13.672 24.096 14.344 23.088 15.688 21.408C15.88 21.168 16.66 20.22 18.028 18.564C19.396 16.908 20.344 15.744 20.872 15.072C22.84 12.528 24.148 10.596 24.796 9.276C25.468 7.956 25.804 6.864 25.804 6C25.804 4.032 24.172 3.048 20.908 3.048C17.452 3.048 12.964 3.984 7.444 5.856C3.58 7.176 1.648 8.4 1.648 9.528C1.648 9.936 1.924 10.332 2.476 10.716C2.644 10.812 2.632 10.872 2.44 10.896C2.272 10.896 2.128 10.86 2.008 10.788C1.288 10.308 0.928 9.684 0.928 8.916C0.928 8.148 1.144 7.392 1.576 6.648C2.032 5.88 2.764 5.22 3.772 4.668C6.076 3.348 8.836 2.28 12.052 1.464C15.508 0.575998 18.736 0.131998 21.736 0.131998C24.904 0.131998 26.944 0.719999 27.856 1.896C28.456 2.64 28.756 3.384 28.756 4.128C28.756 4.848 28.612 5.568 28.324 6.288C27.796 7.752 26.944 9.192 25.768 10.608C25.528 10.92 24.712 11.892 23.32 13.524C21.952 15.132 20.884 16.416 20.116 17.376C28.78 8.256 34.876 3.696 38.404 3.696C39.412 3.696 40.132 4.128 40.564 4.992C40.804 5.472 40.924 5.892 40.924 6.252C40.924 6.612 40.9 7.02 40.852 7.476C40.78 8.676 39.772 10.92 37.828 14.208C40.756 11.16 43.372 8.784 45.676 7.08C48.46 5.016 50.836 3.984 52.804 3.984C53.932 3.984 54.496 4.464 54.496 5.424C54.496 6.36 53.896 7.716 52.696 9.492C45.616 19.884 42.076 26.796 42.076 30.228C42.076 31.308 42.388 31.896 43.012 31.992C43.396 32.064 43.804 31.944 44.236 31.632C44.404 31.512 44.548 31.524 44.668 31.668C44.788 31.836 44.74 32.016 44.524 32.208C44.308 32.424 44.056 32.532 43.768 32.532C43.48 32.532 43.144 32.508 42.76 32.46C42.376 32.412 41.872 32.256 41.248 31.992C40.624 31.752 40.096 31.332 39.664 30.732C39.256 30.156 39.052 29.508 39.052 28.788C39.052 27.756 39.184 26.832 39.448 26.016C40.096 24.12 43.132 19.392 48.556 11.832C50.188 9.552 51.004 7.92 51.004 6.936C51.004 6.192 50.62 5.82 49.852 5.82C48.82 5.82 47.608 6.348 46.216 7.404C43.24 9.66 39.916 12.804 36.244 16.836C35.236 18.468 33.988 20.376 32.5 22.56C32.284 22.872 32.032 23.028 31.744 23.028C30.784 23.028 30.304 22.812 30.304 22.38C30.304 22.284 30.328 22.188 30.376 22.092C34.36 15.18 36.592 10.752 37.072 8.808C37.216 8.136 37.288 7.62 37.288 7.26C37.288 6.876 37.276 6.576 37.252 6.36C37.084 5.664 36.652 5.316 35.956 5.316C35.26 5.316 34.312 5.712 33.112 6.504C31.048 7.824 28.492 9.948 25.444 12.876C22.396 15.804 19.468 18.84 16.66 21.984C16.588 22.056 16.504 22.092 16.408 22.092C15.016 23.844 14.152 24.72 13.816 24.72ZM55.0439 23.388C53.4359 24.204 52.0319 24.612 50.8319 24.612C49.8239 24.612 49.1399 24.276 48.7799 23.604C48.5879 23.268 48.4919 22.884 48.4919 22.452C48.4919 21.468 48.7199 20.508 49.1759 19.572C48.8639 19.884 48.5639 20.136 48.2759 20.328C48.0359 20.544 47.9159 20.52 47.9159 20.256C47.9159 20.088 48.1319 19.824 48.5639 19.464C48.9719 19.104 49.6079 18.504 50.4719 17.664C51.3359 16.8 52.0199 16.152 52.5239 15.72C53.9879 14.496 55.5359 13.884 57.1679 13.884C57.7679 13.884 58.3799 14.04 59.0039 14.352C59.9159 14.784 60.3719 15.576 60.3719 16.728C60.3719 18.12 59.6759 19.548 58.2839 21.012C57.7319 21.636 56.9639 22.26 55.9799 22.884C57.9479 22.572 60.0359 21.384 62.2439 19.32C62.3639 19.224 62.4719 19.188 62.5679 19.212C62.6639 19.212 62.7119 19.26 62.7119 19.356C62.7119 19.452 62.6639 19.548 62.5679 19.644C59.9279 22.14 57.4679 23.388 55.1879 23.388C55.1399 23.388 55.0919 23.388 55.0439 23.388ZM58.5359 19.608C59.1359 18.696 59.4359 17.928 59.4359 17.304C59.4359 16.656 59.1599 16.164 58.6079 15.828C58.2959 15.564 57.9359 15.432 57.5279 15.432C56.0639 15.432 54.7079 16.008 53.4599 17.16C52.2359 18.312 51.4199 19.536 51.0119 20.832C50.8439 21.288 50.7599 21.768 50.7599 22.272C50.7599 22.752 50.9399 23.1 51.2999 23.316C51.6839 23.508 52.1039 23.604 52.5599 23.604C53.0159 23.604 53.6759 23.376 54.5399 22.92C54.4919 22.92 54.4199 22.896 54.3239 22.848C54.0359 22.704 53.8919 22.512 53.8919 22.272C53.8919 21.432 54.3599 20.58 55.2959 19.716C55.9679 19.116 56.6519 18.816 57.3479 18.816C58.0439 18.816 58.4399 19.08 58.5359 19.608ZM69.4096 13.02C69.1456 12.804 69.0376 12.492 69.0856 12.084C69.1336 11.676 69.3496 11.244 69.7336 10.788C70.1176 10.332 70.6336 10.104 71.2816 10.104C71.4736 10.104 71.6776 10.2 71.8936 10.392C72.1096 10.56 72.1936 10.86 72.1456 11.292C72.0976 11.7 71.9056 12.096 71.5696 12.48C71.2336 12.84 70.8496 13.08 70.4176 13.2C70.0096 13.296 69.6736 13.236 69.4096 13.02ZM68.9416 14.928C67.9576 15.936 67.1296 17.22 66.4576 18.78C65.8096 20.316 65.4856 21.396 65.4856 22.02C65.4856 22.644 65.7256 22.956 66.2056 22.956C66.7096 22.956 67.5256 22.596 68.6536 21.876C69.8056 21.156 71.1136 20.136 72.5776 18.816C72.8896 18.528 73.0456 18.564 73.0456 18.924C73.0456 18.972 73.0216 19.02 72.9736 19.068C71.8216 20.076 70.8496 20.904 70.0576 21.552C69.2656 22.2 68.3176 22.824 67.2136 23.424C66.1336 24 65.2456 24.288 64.5496 24.288C63.6856 24.288 63.0376 24.096 62.6056 23.712C62.1976 23.328 61.9936 22.908 61.9936 22.452C61.9936 21.588 62.1496 20.904 62.4616 20.4C62.7736 19.896 63.3016 19.2 64.0456 18.312C63.7816 18.528 63.3616 18.888 62.7856 19.392C62.2336 19.896 61.8496 20.232 61.6336 20.4C61.4176 20.568 61.3096 20.52 61.3096 20.256C61.3096 20.088 61.5016 19.848 61.8856 19.536C62.2696 19.224 63.0976 18.432 64.3696 17.16C65.6656 15.888 66.5416 15.132 66.9976 14.892C67.4776 14.652 67.8616 14.532 68.1496 14.532C68.4616 14.532 68.6896 14.58 68.8336 14.676C68.9776 14.748 69.0136 14.832 68.9416 14.928ZM85.6622 13.308C85.6862 13.356 85.6982 13.404 85.6982 13.452C85.6982 13.5 85.6502 13.512 85.5542 13.488C85.4822 13.464 85.4342 13.428 85.4102 13.38C85.2422 13.02 85.0142 12.84 84.7262 12.84C83.8622 12.84 82.3142 14.616 80.0822 18.168C78.6902 20.424 77.5262 22.02 76.5902 22.956C76.1102 23.436 75.5462 23.772 74.8982 23.964C74.2502 24.156 73.7822 24.252 73.4942 24.252C73.2062 24.252 72.9782 24.216 72.8102 24.144C73.1942 23.592 73.6022 22.704 74.0342 21.48C74.4662 20.232 74.7902 19.14 75.0062 18.204C75.2462 17.244 75.3542 16.764 75.3302 16.764L73.8182 18.276C73.0502 19.068 72.2822 19.764 71.5142 20.364C71.2262 20.604 71.0822 20.592 71.0822 20.328C71.0822 20.184 71.1542 20.052 71.2982 19.932C71.4182 19.812 71.6462 19.608 71.9822 19.32C72.3182 19.008 72.5342 18.804 72.6302 18.708C72.7502 18.612 72.9542 18.432 73.2422 18.168C73.5542 17.88 73.7822 17.652 73.9262 17.484C74.5982 16.692 75.0902 16.02 75.4022 15.468C75.5222 15.18 75.5702 14.904 75.5462 14.64C75.5462 14.352 75.4862 14.172 75.3662 14.1C75.2702 14.004 75.2342 13.896 75.2582 13.776C75.2822 13.488 75.4862 13.416 75.8702 13.56C76.7102 13.944 77.1662 14.496 77.2382 15.216C77.3102 15.576 77.3462 16.08 77.3462 16.728C77.3462 17.352 77.2262 18.336 76.9862 19.68C76.7462 21.072 76.2902 22.272 75.6182 23.28C76.6982 22.584 77.9342 20.856 79.3262 18.096C80.7422 15.312 81.8462 13.536 82.6382 12.768C82.9742 12.432 83.3942 12.264 83.8982 12.264C84.7862 12.264 85.3742 12.612 85.6622 13.308ZM90.2221 13.02C89.9581 12.804 89.8501 12.492 89.8981 12.084C89.9461 11.676 90.1621 11.244 90.5461 10.788C90.9301 10.332 91.4461 10.104 92.0941 10.104C92.2861 10.104 92.4901 10.2 92.7061 10.392C92.9221 10.56 93.0061 10.86 92.9581 11.292C92.9101 11.7 92.7181 12.096 92.3821 12.48C92.0461 12.84 91.6621 13.08 91.2301 13.2C90.8221 13.296 90.4861 13.236 90.2221 13.02ZM89.7541 14.928C88.7701 15.936 87.9421 17.22 87.2701 18.78C86.6221 20.316 86.2981 21.396 86.2981 22.02C86.2981 22.644 86.5381 22.956 87.0181 22.956C87.5221 22.956 88.3381 22.596 89.4661 21.876C90.6181 21.156 91.9261 20.136 93.3901 18.816C93.7021 18.528 93.8581 18.564 93.8581 18.924C93.8581 18.972 93.8341 19.02 93.7861 19.068C92.6341 20.076 91.6621 20.904 90.8701 21.552C90.0781 22.2 89.1301 22.824 88.0261 23.424C86.9461 24 86.0581 24.288 85.3621 24.288C84.4981 24.288 83.8501 24.096 83.4181 23.712C83.0101 23.328 82.8061 22.908 82.8061 22.452C82.8061 21.588 82.9621 20.904 83.2741 20.4C83.5861 19.896 84.1141 19.2 84.8581 18.312C84.5941 18.528 84.1741 18.888 83.5981 19.392C83.0461 19.896 82.6621 20.232 82.4461 20.4C82.2301 20.568 82.1221 20.52 82.1221 20.256C82.1221 20.088 82.3141 19.848 82.6981 19.536C83.0821 19.224 83.9101 18.432 85.1821 17.16C86.4781 15.888 87.3541 15.132 87.8101 14.892C88.2901 14.652 88.6741 14.532 88.9621 14.532C89.2741 14.532 89.5021 14.58 89.6461 14.676C89.7901 14.748 89.8261 14.832 89.7541 14.928ZM101.147 18.384C102.419 17.688 103.055 16.98 103.055 16.26C103.055 15.54 102.623 15.18 101.759 15.18C101.351 15.18 100.919 15.288 100.463 15.504C99.4547 15.96 98.4827 16.752 97.5467 17.88C96.3947 19.272 95.8187 20.568 95.8187 21.768C95.8187 22.224 95.9387 22.656 96.1787 23.064C96.4427 23.448 96.8987 23.64 97.5467 23.64C98.6747 23.64 100.103 23.052 101.831 21.876C103.559 20.676 105.047 19.476 106.295 18.276C106.583 17.988 106.727 17.976 106.727 18.24C106.727 18.408 106.655 18.552 106.511 18.672C105.623 19.488 105.023 20.04 104.711 20.328C104.423 20.592 103.835 21.084 102.947 21.804C102.059 22.5 101.339 22.992 100.787 23.28C99.0827 24.168 97.6307 24.612 96.4307 24.612C95.2547 24.612 94.3187 24.348 93.6227 23.82C92.9507 23.268 92.6147 22.512 92.6147 21.552C92.6147 19.512 93.5267 17.76 95.3507 16.296C97.1747 14.808 99.0827 14.064 101.075 14.064C102.419 14.064 103.319 14.352 103.775 14.928C103.967 15.216 104.063 15.528 104.063 15.864C104.063 16.176 103.955 16.524 103.739 16.908C103.307 17.652 102.491 18.312 101.291 18.888C100.115 19.44 98.9987 19.716 97.9427 19.716C97.5347 19.716 97.3067 19.68 97.2587 19.608C97.2347 19.536 97.2707 19.488 97.3667 19.464C97.4627 19.416 97.5947 19.392 97.7627 19.392C98.7227 19.392 99.8507 19.056 101.147 18.384Z" fill="url(#paint0_linear)"/>
<defs>
<linearGradient id="paint0_linear" x1="1" y1="14.5" x2="106" y2="14.5" gradientUnits="userSpaceOnUse">
<stop stop-color="#FBC2EB"/>
<stop offset="1" stop-color="#A6C1EE"/>
</linearGradient>
</defs>
</svg>
